<svg xmlns="http://www.w3.org/2000/svg" xmlns:xlink="http://www.w3.org/1999/xlink" width="361" zoomAndPan="magnify" viewBox="0 0 270.75 89.249998" height="119" preserveAspectRatio="xMidYMid meet" version="1.0"><defs><filter x="0%" y="0%" width="100%" height="100%" id="6fa0af753f"><feColorMatrix values="0 0 0 0 1 0 0 0 0 1 0 0 0 0 1 0 0 0 1 0" color-interpolation-filters="sRGB"/></filter><g/><mask id="29a4805930"><g filter="url(#6fa0af753f)"><rect x="-27.075" width="324.9" fill="#000000" y="-8.925" height="107.099998" fill-opacity="0.8"/></g></mask><clipPath id="0b5bcbe416"><path d="M 0.519531 1 L 228.523438 1 L 228.523438 80.871094 L 0.519531 80.871094 Z M 0.519531 1 " clip-rule="nonzero"/></clipPath><clipPath id="b3fb164308"><rect x="0" width="229" y="0" height="81"/></clipPath></defs><g mask="url(#29a4805930)"><g transform="matrix(1, 0, 0, 1, 20, 6)"><g clip-path="url(#b3fb164308)"><g clip-path="url(#0b5bcbe416)"><path fill="#e76a28" d="M 128.328125 11.578125 C 125.960938 13.078125 125.003906 13.945312 122.589844 15.539062 C 101.097656 29.746094 65.21875 36.804688 1.785156 16.265625 L 0.738281 70.726562 C 21.820312 78.195312 53.515625 82.066406 84.160156 80.289062 C 96.363281 79.558594 110.660156 75.871094 123.683594 66.808594 C 139.347656 55.882812 170.675781 45 215.800781 63.03125 L 228.414062 16.765625 C 193.125 1.46875 155.921875 -6 128.328125 11.578125 Z M 212.933594 13.578125 C 214.480469 13.078125 216.164062 13.988281 216.621094 15.539062 C 217.121094 17.085938 216.210938 18.769531 214.664062 19.226562 C 213.113281 19.683594 211.429688 18.816406 210.972656 17.269531 C 210.472656 15.71875 211.339844 14.082031 212.933594 13.578125 Z M 202.324219 9.847656 C 203.871094 9.34375 205.554688 10.257812 206.011719 11.804688 C 206.511719 13.351562 205.601562 15.039062 204.054688 15.492188 C 202.503906 15.992188 200.820312 15.082031 200.363281 13.535156 C 199.910156 11.984375 200.773438 10.300781 202.324219 9.847656 Z M 191.757812 6.886719 C 193.308594 6.386719 194.992188 7.296875 195.445312 8.84375 C 195.949219 10.394531 195.039062 12.078125 193.488281 12.53125 C 191.941406 12.988281 190.257812 12.121094 189.800781 10.574219 C 189.300781 9.027344 190.164062 7.339844 191.757812 6.886719 Z M 180.921875 5.15625 C 182.46875 4.65625 184.15625 5.566406 184.609375 7.113281 C 185.109375 8.664062 184.199219 10.347656 182.652344 10.800781 C 181.105469 11.257812 179.417969 10.394531 178.917969 8.84375 C 178.507812 7.339844 179.375 5.65625 180.921875 5.15625 Z M 169.582031 3.425781 C 171.132812 2.925781 172.816406 3.835938 173.273438 5.382812 C 173.773438 6.933594 172.863281 8.617188 171.3125 9.070312 C 169.765625 9.574219 168.082031 8.664062 167.625 7.113281 C 167.167969 5.566406 168.035156 3.925781 169.582031 3.425781 Z M 158.792969 3.425781 C 160.339844 2.925781 162.023438 3.835938 162.480469 5.382812 C 162.980469 6.933594 162.070312 8.617188 160.523438 9.070312 C 158.972656 9.574219 157.289062 8.664062 156.789062 7.113281 C 156.332031 5.566406 157.242188 3.925781 158.792969 3.425781 Z M 147.542969 5.246094 C 149.09375 4.746094 150.777344 5.65625 151.234375 7.207031 C 151.734375 8.800781 150.824219 10.4375 149.273438 10.9375 C 147.726562 11.441406 146.042969 10.527344 145.539062 8.980469 C 145.132812 7.386719 145.996094 5.746094 147.542969 5.246094 Z M 136.753906 9.117188 C 138.300781 8.617188 139.984375 9.527344 140.441406 11.074219 C 140.941406 12.667969 140.03125 14.308594 138.484375 14.808594 C 136.933594 15.308594 135.25 14.398438 134.792969 12.851562 C 134.292969 11.257812 135.203125 9.574219 136.753906 9.117188 Z M 127.875 14.765625 C 129.421875 14.261719 131.105469 15.171875 131.5625 16.722656 C 132.0625 18.269531 131.152344 19.953125 129.605469 20.410156 C 128.054688 20.910156 126.371094 20 125.914062 18.453125 C 125.414062 16.902344 126.324219 15.265625 127.875 14.765625 Z M 117.945312 21.003906 C 119.496094 20.5 121.179688 21.410156 121.636719 22.960938 C 122.136719 24.554688 121.226562 26.191406 119.675781 26.695312 C 118.128906 27.195312 116.445312 26.285156 115.988281 24.734375 C 115.488281 23.140625 116.351562 21.457031 117.945312 21.003906 Z M 107.246094 25.691406 C 108.792969 25.191406 110.480469 26.101562 110.933594 27.648438 C 111.433594 29.199219 110.523438 30.882812 108.976562 31.339844 C 107.429688 31.839844 105.742188 30.929688 105.289062 29.378906 C 104.785156 27.832031 105.652344 26.191406 107.246094 25.691406 Z M 95.679688 29.242188 C 97.226562 28.742188 98.914062 29.652344 99.367188 31.203125 C 99.871094 32.75 98.957031 34.433594 97.410156 34.890625 C 95.816406 35.390625 94.175781 34.480469 93.675781 32.933594 C 93.222656 31.382812 94.132812 29.746094 95.679688 29.242188 Z M 84.160156 30.382812 C 85.800781 30.382812 87.121094 31.703125 87.121094 33.34375 C 87.121094 34.980469 85.800781 36.300781 84.160156 36.300781 C 82.519531 36.300781 81.199219 34.980469 81.199219 33.34375 C 81.199219 31.75 82.519531 30.382812 84.160156 30.382812 Z M 71.730469 31.382812 C 73.367188 31.382812 74.6875 32.703125 74.6875 34.34375 C 74.6875 35.984375 73.367188 37.304688 71.730469 37.304688 C 70.089844 37.304688 68.769531 35.984375 68.769531 34.34375 C 68.769531 32.703125 70.089844 31.382812 71.730469 31.382812 Z M 48.871094 29.746094 C 50.507812 29.746094 51.828125 31.066406 51.828125 32.703125 C 51.828125 34.34375 50.507812 35.664062 48.871094 35.664062 C 47.230469 35.664062 45.910156 34.34375 45.910156 32.703125 C 45.863281 31.066406 47.230469 29.746094 48.871094 29.746094 Z M 37.851562 28.378906 C 39.488281 28.378906 40.808594 29.699219 40.808594 31.339844 C 40.808594 32.976562 39.488281 34.296875 37.851562 34.296875 C 36.210938 34.296875 34.890625 32.976562 34.890625 31.339844 C 34.84375 29.699219 36.210938 28.378906 37.851562 28.378906 Z M 27.789062 26.148438 C 29.425781 26.148438 30.746094 27.46875 30.746094 29.109375 C 30.746094 30.746094 29.425781 32.066406 27.789062 32.066406 C 26.148438 32.066406 24.828125 30.746094 24.828125 29.109375 C 24.828125 27.46875 26.148438 26.148438 27.789062 26.148438 Z M 18.269531 23.78125 C 19.910156 23.78125 21.230469 25.101562 21.230469 26.738281 C 21.230469 28.378906 19.910156 29.699219 18.269531 29.699219 C 16.632812 29.699219 15.3125 28.378906 15.3125 26.738281 C 15.3125 25.101562 16.632812 23.78125 18.269531 23.78125 Z M 8.84375 20.820312 C 10.484375 20.820312 11.804688 22.140625 11.804688 23.78125 C 11.804688 25.417969 10.484375 26.738281 8.84375 26.738281 C 7.207031 26.738281 5.886719 25.417969 5.886719 23.78125 C 5.886719 22.140625 7.207031 20.820312 8.84375 20.820312 Z M 5.886719 67.628906 C 4.246094 67.628906 2.925781 66.308594 2.925781 64.671875 C 2.925781 63.03125 4.246094 61.710938 5.886719 61.710938 C 7.523438 61.710938 8.84375 63.03125 8.84375 64.671875 C 8.84375 66.308594 7.523438 67.628906 5.886719 67.628906 Z M 15.3125 70.589844 C 13.671875 70.589844 12.351562 69.269531 12.351562 67.628906 C 12.351562 65.992188 13.671875 64.671875 15.3125 64.671875 C 16.949219 64.671875 18.269531 65.992188 18.269531 67.628906 C 18.269531 69.269531 16.90625 70.589844 15.3125 70.589844 Z M 24.828125 72.957031 C 23.1875 72.957031 21.867188 71.636719 21.867188 69.996094 C 21.867188 68.359375 23.1875 67.039062 24.828125 67.039062 C 26.46875 67.039062 27.789062 68.359375 27.789062 69.996094 C 27.789062 71.636719 26.46875 72.957031 24.828125 72.957031 Z M 34.84375 75.1875 C 33.207031 75.1875 31.886719 73.867188 31.886719 72.230469 C 31.886719 70.589844 33.207031 69.269531 34.84375 69.269531 C 36.484375 69.269531 37.804688 70.589844 37.804688 72.230469 C 37.851562 73.867188 36.484375 75.1875 34.84375 75.1875 Z M 45.863281 76.554688 C 44.226562 76.554688 42.90625 75.234375 42.90625 73.59375 C 42.90625 71.957031 44.226562 70.636719 45.863281 70.636719 C 47.503906 70.636719 48.824219 71.957031 48.824219 73.59375 C 48.871094 75.1875 47.503906 76.554688 45.863281 76.554688 Z M 56.472656 77.738281 C 54.835938 77.738281 53.515625 76.417969 53.515625 74.777344 C 53.515625 73.140625 54.835938 71.820312 56.472656 71.820312 C 58.113281 71.820312 59.433594 73.140625 59.433594 74.777344 C 59.433594 76.371094 58.113281 77.738281 56.472656 77.738281 Z M 59.433594 36.847656 C 57.792969 36.847656 56.472656 35.527344 56.472656 33.886719 C 56.472656 32.25 57.792969 30.929688 59.433594 30.929688 C 61.074219 30.929688 62.394531 32.25 62.394531 33.886719 C 62.394531 35.527344 61.074219 36.847656 59.433594 36.847656 Z M 68.769531 78.148438 C 67.128906 78.148438 65.808594 76.828125 65.808594 75.1875 C 65.808594 73.550781 67.128906 72.230469 68.769531 72.230469 C 70.40625 72.230469 71.730469 73.550781 71.730469 75.1875 C 71.730469 76.828125 70.40625 78.148438 68.769531 78.148438 Z M 81.199219 77.191406 C 79.5625 77.191406 78.238281 75.871094 78.238281 74.234375 C 78.238281 72.59375 79.5625 71.273438 81.199219 71.273438 C 82.839844 71.273438 84.160156 72.59375 84.160156 74.234375 C 84.160156 75.871094 82.839844 77.191406 81.199219 77.191406 Z M 94.449219 75.78125 C 92.902344 76.28125 91.21875 75.371094 90.761719 73.824219 C 90.261719 72.273438 91.171875 70.589844 92.71875 70.132812 C 94.269531 69.632812 95.953125 70.542969 96.410156 72.09375 C 96.910156 73.640625 96.042969 75.324219 94.449219 75.78125 Z M 106.015625 72.230469 C 104.46875 72.730469 102.785156 71.820312 102.328125 70.269531 C 101.828125 68.722656 102.738281 67.039062 104.285156 66.582031 C 105.835938 66.082031 107.519531 66.992188 108.019531 68.539062 C 108.476562 70.089844 107.566406 71.773438 106.015625 72.230469 Z M 116.71875 67.539062 C 115.167969 68.039062 113.484375 67.128906 113.027344 65.582031 C 112.527344 63.988281 113.4375 62.347656 114.988281 61.847656 C 116.535156 61.347656 118.21875 62.257812 118.675781 63.804688 C 119.175781 65.398438 118.265625 67.039062 116.71875 67.539062 Z M 126.644531 61.347656 C 125.09375 61.847656 123.410156 60.9375 122.957031 59.386719 C 122.5 57.839844 123.367188 56.15625 124.914062 55.699219 C 126.460938 55.199219 128.144531 56.109375 128.601562 57.65625 C 129.101562 59.160156 128.238281 60.84375 126.644531 61.347656 Z M 135.523438 55.65625 C 133.976562 56.15625 132.289062 55.246094 131.835938 53.695312 C 131.332031 52.101562 132.246094 50.464844 133.792969 49.960938 C 135.339844 49.460938 137.027344 50.371094 137.527344 51.921875 C 137.980469 53.515625 137.117188 55.152344 135.523438 55.65625 Z M 146.359375 51.785156 C 144.8125 52.285156 143.128906 51.375 142.671875 49.824219 C 142.171875 48.230469 143.082031 46.59375 144.628906 46.09375 C 146.179688 45.589844 147.863281 46.5 148.320312 48.050781 C 148.773438 49.644531 147.910156 51.328125 146.359375 51.785156 Z M 157.5625 49.960938 C 156.015625 50.464844 154.328125 49.550781 153.875 48.003906 C 153.371094 46.457031 154.285156 44.773438 155.832031 44.316406 C 157.378906 43.816406 159.066406 44.726562 159.519531 46.273438 C 160.019531 47.824219 159.15625 49.507812 157.5625 49.960938 Z M 168.355469 49.960938 C 166.804688 50.464844 165.121094 49.550781 164.664062 48.003906 C 164.164062 46.457031 165.074219 44.773438 166.625 44.316406 C 168.171875 43.816406 169.855469 44.726562 170.3125 46.273438 C 170.8125 47.824219 169.949219 49.507812 168.355469 49.960938 Z M 179.738281 51.738281 C 178.1875 52.238281 176.503906 51.328125 176.050781 49.78125 C 175.546875 48.230469 176.460938 46.546875 178.007812 46.09375 C 179.554688 45.589844 181.238281 46.5 181.695312 48.050781 C 182.152344 49.597656 181.285156 51.238281 179.738281 51.738281 Z M 190.53125 53.421875 C 188.980469 53.925781 187.296875 53.011719 186.839844 51.464844 C 186.339844 49.917969 187.25 48.230469 188.800781 47.777344 C 190.347656 47.277344 192.03125 48.1875 192.488281 49.734375 C 192.941406 51.28125 192.078125 52.921875 190.53125 53.421875 Z M 201.09375 56.382812 C 199.546875 56.882812 197.859375 55.972656 197.40625 54.425781 C 196.902344 52.875 197.816406 51.191406 199.363281 50.738281 C 200.910156 50.234375 202.597656 51.144531 203.050781 52.695312 C 203.550781 54.242188 202.6875 55.882812 201.09375 56.382812 Z M 211.703125 60.117188 C 210.15625 60.617188 208.46875 59.707031 208.015625 58.160156 C 207.515625 56.609375 208.425781 54.925781 209.972656 54.425781 C 211.519531 53.925781 213.207031 54.835938 213.660156 56.382812 C 214.160156 57.976562 213.25 59.617188 211.703125 60.117188 Z M 224.226562 22.09375 C 222.675781 22.597656 220.992188 21.683594 220.535156 20.136719 C 220.035156 18.589844 220.945312 16.902344 222.496094 16.449219 C 224.042969 15.949219 225.726562 16.859375 226.183594 18.40625 C 226.683594 19.953125 225.820312 21.59375 224.226562 22.09375 Z M 224.226562 22.09375 " fill-opacity="1" fill-rule="nonzero"/></g><path fill="#faa37f" d="M 53.652344 64.988281 C 41.355469 70.5 15.765625 63.757812 6.703125 57.976562 L 7.886719 29.746094 C 19.589844 37.121094 40.765625 39.261719 56.429688 38.441406 Z M 53.652344 64.988281 " fill-opacity="1" fill-rule="nonzero"/><path fill="#faa37f" d="M 111.664062 60.707031 C 101.644531 66.902344 72.820312 68.8125 62.394531 66.992188 L 62.394531 39.351562 C 75.597656 42.039062 96.5 38.398438 111.390625 33.84375 Z M 111.664062 60.707031 " fill-opacity="1" fill-rule="nonzero"/><path fill="#faa37f" d="M 115.625 30.929688 C 123.09375 24.554688 150.824219 13.398438 162.523438 12.667969 L 164.074219 40.355469 C 148.136719 39.625 132.246094 46.363281 119.675781 56.519531 Z M 115.625 30.929688 " fill-opacity="1" fill-rule="nonzero"/><path fill="#faa37f" d="M 169.21875 12.667969 C 183.015625 11.984375 212.566406 19.453125 219.808594 24.144531 L 213.433594 51.648438 C 197.359375 41.402344 185.109375 40.535156 170.449219 40.808594 Z M 169.21875 12.667969 " fill-opacity="1" fill-rule="nonzero"/></g></g></g><g fill="#c0c0c0" fill-opacity="1"><g transform="translate(11.531554, 55.245595)"><g><path d="M 1 -20.953125 L 9.578125 -20.953125 C 10.296875 -20.953125 10.863281 -20.945312 11.28125 -20.9375 C 11.695312 -20.925781 12.03125 -20.90625 12.28125 -20.875 C 12.53125 -20.84375 12.726562 -20.796875 12.875 -20.734375 C 13.03125 -20.671875 13.191406 -20.585938 13.359375 -20.484375 C 14.191406 -19.941406 14.609375 -18.75 14.609375 -16.90625 L 14.609375 -15.546875 C 14.609375 -15.023438 14.601562 -14.585938 14.59375 -14.234375 C 14.582031 -13.878906 14.554688 -13.578125 14.515625 -13.328125 C 14.472656 -13.078125 14.414062 -12.851562 14.34375 -12.65625 C 14.269531 -12.46875 14.171875 -12.28125 14.046875 -12.09375 C 13.796875 -11.675781 13.484375 -11.367188 13.109375 -11.171875 C 12.742188 -10.972656 12.21875 -10.832031 11.53125 -10.75 C 12.15625 -10.5625 12.664062 -10.363281 13.0625 -10.15625 C 13.46875 -9.957031 13.785156 -9.707031 14.015625 -9.40625 C 14.242188 -9.101562 14.398438 -8.742188 14.484375 -8.328125 C 14.566406 -7.910156 14.609375 -7.382812 14.609375 -6.75 L 14.609375 -3.515625 C 14.609375 -2.242188 14.753906 -1.070312 15.046875 0 L 9.421875 0 C 9.253906 -0.539062 9.140625 -1.0625 9.078125 -1.5625 C 9.015625 -2.070312 8.984375 -2.722656 8.984375 -3.515625 L 8.984375 -6.3125 C 8.984375 -6.988281 8.859375 -7.472656 8.609375 -7.765625 C 8.359375 -8.054688 7.941406 -8.203125 7.359375 -8.203125 L 6.625 -8.203125 L 6.625 0 L 1 0 Z M 7.421875 -12.75 C 8.066406 -12.75 8.492188 -12.863281 8.703125 -13.09375 C 8.910156 -13.332031 9.015625 -13.816406 9.015625 -14.546875 C 9.015625 -15.234375 8.898438 -15.710938 8.671875 -15.984375 C 8.441406 -16.265625 8.023438 -16.40625 7.421875 -16.40625 L 6.625 -16.40625 L 6.625 -12.75 Z M 7.421875 -12.75 "/></g></g></g><g fill="#c0c0c0" fill-opacity="1"><g transform="translate(27.142651, 55.245595)"><g><path d="M 5.625 0 C 4.40625 0 3.492188 -0.0625 2.890625 -0.1875 C 2.285156 -0.3125 1.828125 -0.519531 1.515625 -0.8125 C 1.335938 -0.957031 1.207031 -1.101562 1.125 -1.25 C 1.039062 -1.40625 0.972656 -1.601562 0.921875 -1.84375 C 0.867188 -2.082031 0.835938 -2.40625 0.828125 -2.8125 C 0.816406 -3.21875 0.8125 -3.769531 0.8125 -4.46875 L 0.8125 -11.59375 C 0.8125 -12.28125 0.816406 -12.828125 0.828125 -13.234375 C 0.835938 -13.648438 0.867188 -13.984375 0.921875 -14.234375 C 0.972656 -14.484375 1.039062 -14.679688 1.125 -14.828125 C 1.207031 -14.972656 1.335938 -15.117188 1.515625 -15.265625 C 1.828125 -15.566406 2.285156 -15.78125 2.890625 -15.90625 C 3.492188 -16.03125 4.40625 -16.09375 5.625 -16.09375 L 8.390625 -16.09375 C 9.585938 -16.09375 10.488281 -16.03125 11.09375 -15.90625 C 11.695312 -15.78125 12.15625 -15.566406 12.46875 -15.265625 C 12.613281 -15.117188 12.734375 -14.972656 12.828125 -14.828125 C 12.929688 -14.679688 13.007812 -14.484375 13.0625 -14.234375 C 13.113281 -13.984375 13.144531 -13.648438 13.15625 -13.234375 C 13.164062 -12.828125 13.171875 -12.28125 13.171875 -11.59375 L 13.171875 -4.46875 C 13.171875 -3.769531 13.164062 -3.21875 13.15625 -2.8125 C 13.144531 -2.40625 13.113281 -2.082031 13.0625 -1.84375 C 13.007812 -1.601562 12.929688 -1.40625 12.828125 -1.25 C 12.734375 -1.101562 12.613281 -0.957031 12.46875 -0.8125 C 12.15625 -0.519531 11.695312 -0.3125 11.09375 -0.1875 C 10.488281 -0.0625 9.585938 0 8.390625 0 Z M 8.171875 -10.53125 C 8.171875 -11.132812 8.078125 -11.570312 7.890625 -11.84375 C 7.703125 -12.113281 7.382812 -12.25 6.9375 -12.25 C 6.1875 -12.25 5.8125 -11.675781 5.8125 -10.53125 L 5.8125 -5.46875 C 5.8125 -4.863281 5.90625 -4.421875 6.09375 -4.140625 C 6.28125 -3.867188 6.59375 -3.734375 7.03125 -3.734375 C 7.789062 -3.734375 8.171875 -4.3125 8.171875 -5.46875 Z M 8.171875 -10.53125 "/></g></g></g><g fill="#c0c0c0" fill-opacity="1"><g transform="translate(41.120391, 55.245595)"><g><path d="M 4.34375 0 C 3.414062 0 2.722656 -0.078125 2.265625 -0.234375 C 1.804688 -0.390625 1.445312 -0.675781 1.1875 -1.09375 C 1.101562 -1.238281 1.035156 -1.367188 0.984375 -1.484375 C 0.929688 -1.609375 0.894531 -1.785156 0.875 -2.015625 C 0.851562 -2.242188 0.835938 -2.566406 0.828125 -2.984375 C 0.816406 -3.398438 0.8125 -4 0.8125 -4.78125 L 0.8125 -12.46875 C 0.8125 -12.894531 0.8125 -13.222656 0.8125 -13.453125 C 0.8125 -13.679688 0.816406 -13.863281 0.828125 -14 C 0.835938 -14.132812 0.859375 -14.242188 0.890625 -14.328125 C 0.921875 -14.410156 0.957031 -14.515625 1 -14.640625 C 1.082031 -14.910156 1.203125 -15.140625 1.359375 -15.328125 C 1.523438 -15.515625 1.738281 -15.660156 2 -15.765625 C 2.257812 -15.878906 2.582031 -15.960938 2.96875 -16.015625 C 3.351562 -16.066406 3.820312 -16.09375 4.375 -16.09375 L 8.890625 -16.09375 L 8.890625 -12.28125 L 7.234375 -12.28125 C 6.929688 -12.28125 6.6875 -12.253906 6.5 -12.203125 C 6.3125 -12.148438 6.164062 -12.050781 6.0625 -11.90625 C 5.957031 -11.757812 5.890625 -11.554688 5.859375 -11.296875 C 5.828125 -11.035156 5.8125 -10.6875 5.8125 -10.25 L 5.8125 -5.71875 C 5.8125 -5.300781 5.828125 -4.96875 5.859375 -4.71875 C 5.890625 -4.46875 5.957031 -4.269531 6.0625 -4.125 C 6.164062 -3.988281 6.316406 -3.898438 6.515625 -3.859375 C 6.710938 -3.816406 6.984375 -3.796875 7.328125 -3.796875 L 8.890625 -3.796875 L 8.890625 0 Z M 4.34375 0 "/></g></g></g><g fill="#c0c0c0" fill-opacity="1"><g transform="translate(50.323713, 55.245595)"><g><path d="M 0.90625 -20.953125 L 5.90625 -20.953125 L 5.90625 -9.921875 L 6.53125 -9.921875 C 6.84375 -9.921875 7.101562 -9.960938 7.3125 -10.046875 C 7.53125 -10.140625 7.695312 -10.285156 7.8125 -10.484375 C 7.925781 -10.679688 8.007812 -10.945312 8.0625 -11.28125 C 8.113281 -11.613281 8.140625 -12.039062 8.140625 -12.5625 L 8.140625 -16.09375 L 13.140625 -16.09375 L 13.140625 -12.78125 C 13.140625 -12.09375 13.082031 -11.507812 12.96875 -11.03125 C 12.863281 -10.550781 12.671875 -10.144531 12.390625 -9.8125 C 12.109375 -9.488281 11.726562 -9.210938 11.25 -8.984375 C 10.769531 -8.753906 10.148438 -8.546875 9.390625 -8.359375 C 10.734375 -8.109375 11.691406 -7.691406 12.265625 -7.109375 C 12.847656 -6.535156 13.140625 -5.707031 13.140625 -4.625 L 13.140625 -3.234375 C 13.140625 -2.734375 13.144531 -2.332031 13.15625 -2.03125 C 13.164062 -1.726562 13.179688 -1.460938 13.203125 -1.234375 C 13.222656 -1.015625 13.257812 -0.816406 13.3125 -0.640625 C 13.363281 -0.460938 13.429688 -0.25 13.515625 0 L 8.484375 0 C 8.359375 -0.476562 8.269531 -0.9375 8.21875 -1.375 C 8.164062 -1.820312 8.140625 -2.390625 8.140625 -3.078125 L 8.140625 -3.859375 C 8.140625 -5.222656 7.644531 -5.90625 6.65625 -5.90625 L 5.90625 -5.90625 L 5.90625 0 L 0.90625 0 Z M 0.90625 -20.953125 "/></g></g></g><g fill="#c0c0c0" fill-opacity="1"><g transform="translate(64.207232, 55.245595)"><g><path d="M 8.671875 0.0625 C 8.273438 0.0625 7.945312 0.0390625 7.6875 0 C 7.425781 -0.0390625 7.195312 -0.125 7 -0.25 C 6.8125 -0.375 6.632812 -0.554688 6.46875 -0.796875 C 6.300781 -1.035156 6.113281 -1.359375 5.90625 -1.765625 L 5.90625 0 L 0.90625 0 L 0.90625 -20.953125 L 5.90625 -20.953125 L 5.90625 -14.421875 L 6.28125 -14.890625 C 6.488281 -15.160156 6.679688 -15.378906 6.859375 -15.546875 C 7.035156 -15.722656 7.234375 -15.859375 7.453125 -15.953125 C 7.679688 -16.046875 7.9375 -16.109375 8.21875 -16.140625 C 8.5 -16.171875 8.847656 -16.1875 9.265625 -16.1875 L 10.34375 -16.1875 C 11.425781 -16.1875 12.207031 -15.847656 12.6875 -15.171875 C 12.863281 -14.941406 12.984375 -14.640625 13.046875 -14.265625 C 13.109375 -13.890625 13.140625 -13.375 13.140625 -12.71875 L 13.140625 -4.109375 C 13.140625 -3.378906 13.082031 -2.710938 12.96875 -2.109375 C 12.863281 -1.515625 12.71875 -1.070312 12.53125 -0.78125 C 12.300781 -0.445312 11.992188 -0.222656 11.609375 -0.109375 C 11.222656 0.00390625 10.578125 0.0625 9.671875 0.0625 Z M 8.140625 -10.625 C 8.140625 -11.832031 7.757812 -12.4375 7 -12.4375 C 6.269531 -12.4375 5.90625 -11.832031 5.90625 -10.625 L 5.90625 -5.65625 C 5.90625 -4.4375 6.28125 -3.828125 7.03125 -3.828125 C 7.769531 -3.828125 8.140625 -4.4375 8.140625 -5.65625 Z M 8.140625 -10.625 "/></g></g></g><g fill="#c0c0c0" fill-opacity="1"><g transform="translate(78.153577, 55.245595)"><g><path d="M 6.15625 0 C 5.507812 0 4.960938 -0.015625 4.515625 -0.046875 C 4.078125 -0.078125 3.703125 -0.132812 3.390625 -0.21875 C 3.078125 -0.300781 2.804688 -0.414062 2.578125 -0.5625 C 2.347656 -0.707031 2.128906 -0.894531 1.921875 -1.125 C 1.734375 -1.3125 1.566406 -1.515625 1.421875 -1.734375 C 1.285156 -1.960938 1.179688 -2.21875 1.109375 -2.5 C 1.035156 -2.78125 0.984375 -3.113281 0.953125 -3.5 C 0.921875 -3.882812 0.90625 -4.363281 0.90625 -4.9375 L 0.90625 -16.09375 L 5.90625 -16.09375 L 5.90625 -5.46875 C 5.90625 -4.3125 6.28125 -3.734375 7.03125 -3.734375 C 7.476562 -3.734375 7.796875 -3.867188 7.984375 -4.140625 C 8.171875 -4.421875 8.265625 -4.863281 8.265625 -5.46875 L 8.265625 -16.09375 L 13.265625 -16.09375 L 13.265625 -4.9375 C 13.265625 -4.382812 13.25 -3.910156 13.21875 -3.515625 C 13.1875 -3.117188 13.132812 -2.78125 13.0625 -2.5 C 12.988281 -2.21875 12.878906 -1.960938 12.734375 -1.734375 C 12.597656 -1.515625 12.4375 -1.3125 12.25 -1.125 C 12.019531 -0.894531 11.796875 -0.707031 11.578125 -0.5625 C 11.359375 -0.414062 11.09375 -0.300781 10.78125 -0.21875 C 10.46875 -0.132812 10.085938 -0.078125 9.640625 -0.046875 C 9.203125 -0.015625 8.660156 0 8.015625 0 Z M 6.15625 0 "/></g></g></g><g fill="#c0c0c0" fill-opacity="1"><g transform="translate(92.3198, 55.245595)"><g><path d="M 0.65625 -3.796875 L 5.59375 -3.796875 L 5.59375 -5.84375 L 3.140625 -5.84375 C 2.535156 -5.84375 2.078125 -5.890625 1.765625 -5.984375 C 1.460938 -6.078125 1.226562 -6.238281 1.0625 -6.46875 C 0.976562 -6.59375 0.910156 -6.707031 0.859375 -6.8125 C 0.804688 -6.914062 0.765625 -7.0625 0.734375 -7.25 C 0.703125 -7.445312 0.679688 -7.707031 0.671875 -8.03125 C 0.660156 -8.351562 0.65625 -8.804688 0.65625 -9.390625 L 0.65625 -13.203125 C 0.65625 -13.929688 0.75 -14.492188 0.9375 -14.890625 C 1.125 -15.285156 1.429688 -15.59375 1.859375 -15.8125 C 2.066406 -15.914062 2.335938 -15.988281 2.671875 -16.03125 C 3.003906 -16.070312 3.453125 -16.09375 4.015625 -16.09375 L 10.1875 -16.09375 L 10.1875 -12.28125 L 5.65625 -12.28125 L 5.65625 -10.40625 L 7.421875 -10.40625 C 8.210938 -10.40625 8.832031 -10.328125 9.28125 -10.171875 C 9.726562 -10.023438 10.070312 -9.773438 10.3125 -9.421875 C 10.394531 -9.273438 10.46875 -9.125 10.53125 -8.96875 C 10.59375 -8.8125 10.640625 -8.613281 10.671875 -8.375 C 10.703125 -8.132812 10.722656 -7.816406 10.734375 -7.421875 C 10.742188 -7.035156 10.75 -6.539062 10.75 -5.9375 L 10.75 -3.734375 C 10.75 -3.503906 10.722656 -3.179688 10.671875 -2.765625 C 10.617188 -2.347656 10.570312 -2.035156 10.53125 -1.828125 C 10.425781 -1.398438 10.195312 -1.019531 9.84375 -0.6875 C 9.5 -0.351562 9.117188 -0.15625 8.703125 -0.09375 C 8.578125 -0.0703125 8.410156 -0.0546875 8.203125 -0.046875 C 7.992188 -0.0351562 7.570312 -0.0195312 6.9375 0 L 0.65625 0 Z M 0.65625 -3.796875 "/></g></g></g><g fill="#c0c0c0" fill-opacity="1"><g transform="translate(103.721868, 55.245595)"><g><path d="M 4.625 0 C 3.96875 0 3.421875 -0.0625 2.984375 -0.1875 C 2.546875 -0.3125 2.195312 -0.519531 1.9375 -0.8125 C 1.675781 -1.101562 1.484375 -1.488281 1.359375 -1.96875 C 1.242188 -2.457031 1.1875 -3.066406 1.1875 -3.796875 L 1.1875 -11.6875 L -0.15625 -11.6875 L -0.15625 -15.484375 L 1.1875 -15.484375 L 1.1875 -19.296875 L 6.1875 -19.296875 L 6.1875 -15.484375 L 8.578125 -15.484375 L 8.578125 -11.6875 L 6.1875 -11.6875 L 6.1875 -4.9375 C 6.1875 -4.519531 6.265625 -4.222656 6.421875 -4.046875 C 6.578125 -3.878906 6.859375 -3.796875 7.265625 -3.796875 L 8.578125 -3.796875 L 8.578125 0 Z M 4.625 0 "/></g></g></g><g fill="#c0c0c0" fill-opacity="1"><g transform="translate(112.579679, 55.245595)"><g><path d="M 4.65625 0 C 3.707031 0 3.007812 -0.046875 2.5625 -0.140625 C 2.113281 -0.234375 1.753906 -0.414062 1.484375 -0.6875 C 1.328125 -0.832031 1.207031 -0.984375 1.125 -1.140625 C 1.039062 -1.296875 0.972656 -1.5 0.921875 -1.75 C 0.867188 -2.007812 0.835938 -2.34375 0.828125 -2.75 C 0.816406 -3.15625 0.8125 -3.6875 0.8125 -4.34375 L 0.8125 -12.84375 C 0.8125 -14.019531 1.066406 -14.859375 1.578125 -15.359375 C 1.828125 -15.617188 2.210938 -15.804688 2.734375 -15.921875 C 3.253906 -16.035156 3.988281 -16.09375 4.9375 -16.09375 L 8.859375 -16.09375 C 10.535156 -16.09375 11.675781 -15.847656 12.28125 -15.359375 C 12.445312 -15.234375 12.578125 -15.109375 12.671875 -14.984375 C 12.765625 -14.859375 12.835938 -14.695312 12.890625 -14.5 C 12.953125 -14.300781 12.992188 -14.054688 13.015625 -13.765625 C 13.035156 -13.472656 13.046875 -13.09375 13.046875 -12.625 L 13.046875 -6.03125 L 5.8125 -6.03125 L 5.8125 -5.1875 C 5.8125 -4.644531 5.929688 -4.273438 6.171875 -4.078125 C 6.410156 -3.890625 6.878906 -3.796875 7.578125 -3.796875 L 13.046875 -3.796875 L 13.046875 0 Z M 8.046875 -9.078125 L 8.046875 -10.53125 C 8.046875 -11.070312 7.945312 -11.5 7.75 -11.8125 C 7.550781 -12.125 7.269531 -12.28125 6.90625 -12.28125 C 6.550781 -12.28125 6.28125 -12.125 6.09375 -11.8125 C 5.90625 -11.5 5.8125 -11.070312 5.8125 -10.53125 L 5.8125 -9.078125 Z M 8.046875 -9.078125 "/></g></g></g><g fill="#c0c0c0" fill-opacity="1"><g transform="translate(126.337562, 55.245595)"><g><path d="M 0.90625 -16.09375 L 5.90625 -16.09375 L 5.90625 -14.015625 C 6.382812 -14.804688 6.859375 -15.363281 7.328125 -15.6875 C 7.804688 -16.019531 8.410156 -16.1875 9.140625 -16.1875 C 9.304688 -16.1875 9.445312 -16.175781 9.5625 -16.15625 C 9.675781 -16.132812 9.832031 -16.082031 10.03125 -16 L 9.640625 -10.5625 C 9.265625 -10.75 8.9375 -10.90625 8.65625 -11.03125 C 8.375 -11.15625 8.097656 -11.269531 7.828125 -11.375 C 7.554688 -11.476562 7.265625 -11.582031 6.953125 -11.6875 C 6.648438 -11.789062 6.300781 -11.90625 5.90625 -12.03125 L 5.90625 0 L 0.90625 0 Z M 0.90625 -16.09375 "/></g></g></g><g fill="#c0c0c0" fill-opacity="1"><g transform="translate(136.294736, 55.245595)"><g/></g></g><g fill="#c0c0c0" fill-opacity="1"><g transform="translate(143.739066, 55.245595)"><g><path d="M 0.53125 -4.5625 L 5.78125 -4.5625 L 5.78125 -8.203125 L 4.90625 -8.203125 C 3.8125 -8.203125 2.992188 -8.296875 2.453125 -8.484375 C 1.910156 -8.671875 1.488281 -9.015625 1.1875 -9.515625 C 1.039062 -9.742188 0.921875 -9.984375 0.828125 -10.234375 C 0.734375 -10.492188 0.65625 -10.789062 0.59375 -11.125 C 0.53125 -11.457031 0.488281 -11.851562 0.46875 -12.3125 C 0.445312 -12.78125 0.4375 -13.328125 0.4375 -13.953125 L 0.4375 -15.234375 C 0.4375 -17.835938 0.867188 -19.503906 1.734375 -20.234375 C 1.921875 -20.378906 2.113281 -20.503906 2.3125 -20.609375 C 2.507812 -20.710938 2.765625 -20.785156 3.078125 -20.828125 C 3.390625 -20.867188 3.789062 -20.898438 4.28125 -20.921875 C 4.78125 -20.941406 5.40625 -20.953125 6.15625 -20.953125 L 11 -20.953125 L 11 -16.40625 L 6.0625 -16.40625 L 6.0625 -12.75 L 7.0625 -12.75 C 7.96875 -12.75 8.710938 -12.671875 9.296875 -12.515625 C 9.890625 -12.359375 10.351562 -12.070312 10.6875 -11.65625 C 11.019531 -11.238281 11.25 -10.664062 11.375 -9.9375 C 11.5 -9.21875 11.5625 -8.304688 11.5625 -7.203125 L 11.5625 -5.90625 C 11.5625 -4.644531 11.488281 -3.628906 11.34375 -2.859375 C 11.195312 -2.085938 10.96875 -1.5 10.65625 -1.09375 C 10.363281 -0.738281 10.03125 -0.476562 9.65625 -0.3125 C 9.289062 -0.144531 8.796875 -0.0390625 8.171875 0 L 0.53125 0 Z M 0.53125 -4.5625 "/></g></g></g><g fill="#c0c0c0" fill-opacity="1"><g transform="translate(155.706522, 55.245595)"><g><path d="M 4.625 0 C 3.96875 0 3.421875 -0.0625 2.984375 -0.1875 C 2.546875 -0.3125 2.195312 -0.519531 1.9375 -0.8125 C 1.675781 -1.101562 1.484375 -1.488281 1.359375 -1.96875 C 1.242188 -2.457031 1.1875 -3.066406 1.1875 -3.796875 L 1.1875 -11.6875 L -0.15625 -11.6875 L -0.15625 -15.484375 L 1.1875 -15.484375 L 1.1875 -19.296875 L 6.1875 -19.296875 L 6.1875 -15.484375 L 8.578125 -15.484375 L 8.578125 -11.6875 L 6.1875 -11.6875 L 6.1875 -4.9375 C 6.1875 -4.519531 6.265625 -4.222656 6.421875 -4.046875 C 6.578125 -3.878906 6.859375 -3.796875 7.265625 -3.796875 L 8.578125 -3.796875 L 8.578125 0 Z M 4.625 0 "/></g></g></g><g fill="#c0c0c0" fill-opacity="1"><g transform="translate(164.564333, 55.245595)"><g><path d="M 4.65625 0 C 3.707031 0 3.007812 -0.046875 2.5625 -0.140625 C 2.113281 -0.234375 1.753906 -0.414062 1.484375 -0.6875 C 1.328125 -0.832031 1.207031 -0.984375 1.125 -1.140625 C 1.039062 -1.296875 0.972656 -1.5 0.921875 -1.75 C 0.867188 -2.007812 0.835938 -2.34375 0.828125 -2.75 C 0.816406 -3.15625 0.8125 -3.6875 0.8125 -4.34375 L 0.8125 -12.84375 C 0.8125 -14.019531 1.066406 -14.859375 1.578125 -15.359375 C 1.828125 -15.617188 2.210938 -15.804688 2.734375 -15.921875 C 3.253906 -16.035156 3.988281 -16.09375 4.9375 -16.09375 L 8.859375 -16.09375 C 10.535156 -16.09375 11.675781 -15.847656 12.28125 -15.359375 C 12.445312 -15.234375 12.578125 -15.109375 12.671875 -14.984375 C 12.765625 -14.859375 12.835938 -14.695312 12.890625 -14.5 C 12.953125 -14.300781 12.992188 -14.054688 13.015625 -13.765625 C 13.035156 -13.472656 13.046875 -13.09375 13.046875 -12.625 L 13.046875 -6.03125 L 5.8125 -6.03125 L 5.8125 -5.1875 C 5.8125 -4.644531 5.929688 -4.273438 6.171875 -4.078125 C 6.410156 -3.890625 6.878906 -3.796875 7.578125 -3.796875 L 13.046875 -3.796875 L 13.046875 0 Z M 8.046875 -9.078125 L 8.046875 -10.53125 C 8.046875 -11.070312 7.945312 -11.5 7.75 -11.8125 C 7.550781 -12.125 7.269531 -12.28125 6.90625 -12.28125 C 6.550781 -12.28125 6.28125 -12.125 6.09375 -11.8125 C 5.90625 -11.5 5.8125 -11.070312 5.8125 -10.53125 L 5.8125 -9.078125 Z M 8.046875 -9.078125 "/></g></g></g><g fill="#c0c0c0" fill-opacity="1"><g transform="translate(178.322216, 55.245595)"><g><path d="M 4.265625 0.0625 C 3.367188 0.0625 2.726562 0.00390625 2.34375 -0.109375 C 1.957031 -0.222656 1.644531 -0.445312 1.40625 -0.78125 C 1.21875 -1.070312 1.070312 -1.507812 0.96875 -2.09375 C 0.863281 -2.6875 0.8125 -3.359375 0.8125 -4.109375 L 0.8125 -12.6875 C 0.8125 -13.46875 0.859375 -14.054688 0.953125 -14.453125 C 1.046875 -14.847656 1.222656 -15.171875 1.484375 -15.421875 C 1.984375 -15.929688 2.691406 -16.1875 3.609375 -16.1875 L 4.6875 -16.1875 C 5.082031 -16.1875 5.421875 -16.164062 5.703125 -16.125 C 5.984375 -16.082031 6.234375 -16.015625 6.453125 -15.921875 C 6.671875 -15.828125 6.875 -15.691406 7.0625 -15.515625 C 7.257812 -15.347656 7.460938 -15.128906 7.671875 -14.859375 L 8.046875 -14.390625 L 8.046875 -16.09375 L 13.046875 -16.09375 L 13.046875 0 L 8.046875 0 L 8.046875 -1.765625 C 7.835938 -1.359375 7.648438 -1.035156 7.484375 -0.796875 C 7.316406 -0.554688 7.128906 -0.375 6.921875 -0.25 C 6.722656 -0.125 6.5 -0.0390625 6.25 0 C 6 0.0390625 5.675781 0.0625 5.28125 0.0625 Z M 8.046875 -10.625 C 8.046875 -11.832031 7.664062 -12.4375 6.90625 -12.4375 C 6.175781 -12.4375 5.8125 -11.832031 5.8125 -10.625 L 5.8125 -5.65625 C 5.8125 -4.4375 6.1875 -3.828125 6.9375 -3.828125 C 7.675781 -3.828125 8.046875 -4.4375 8.046875 -5.65625 Z M 8.046875 -10.625 "/></g></g></g><g fill="#c0c0c0" fill-opacity="1"><g transform="translate(192.268562, 55.245595)"><g><path d="M 0.90625 -20.953125 L 5.90625 -20.953125 L 5.90625 0 L 0.90625 0 Z M 0.90625 -20.953125 "/></g></g></g><g fill="#c0c0c0" fill-opacity="1"><g transform="translate(199.084676, 55.245595)"><g><path d="M 4.625 0 C 3.96875 0 3.421875 -0.0625 2.984375 -0.1875 C 2.546875 -0.3125 2.195312 -0.519531 1.9375 -0.8125 C 1.675781 -1.101562 1.484375 -1.488281 1.359375 -1.96875 C 1.242188 -2.457031 1.1875 -3.066406 1.1875 -3.796875 L 1.1875 -11.6875 L -0.15625 -11.6875 L -0.15625 -15.484375 L 1.1875 -15.484375 L 1.1875 -19.296875 L 6.1875 -19.296875 L 6.1875 -15.484375 L 8.578125 -15.484375 L 8.578125 -11.6875 L 6.1875 -11.6875 L 6.1875 -4.9375 C 6.1875 -4.519531 6.265625 -4.222656 6.421875 -4.046875 C 6.578125 -3.878906 6.859375 -3.796875 7.265625 -3.796875 L 8.578125 -3.796875 L 8.578125 0 Z M 4.625 0 "/></g></g></g><g fill="#c0c0c0" fill-opacity="1"><g transform="translate(207.942486, 55.245595)"><g><path d="M 0.90625 -20.953125 L 5.90625 -20.953125 L 5.90625 -14.359375 C 6.113281 -14.691406 6.328125 -14.972656 6.546875 -15.203125 C 6.765625 -15.429688 7.007812 -15.617188 7.28125 -15.765625 C 7.5625 -15.921875 7.878906 -16.023438 8.234375 -16.078125 C 8.585938 -16.128906 9.003906 -16.15625 9.484375 -16.15625 C 10.492188 -16.15625 11.257812 -16.050781 11.78125 -15.84375 C 12.300781 -15.644531 12.679688 -15.304688 12.921875 -14.828125 C 12.984375 -14.679688 13.035156 -14.550781 13.078125 -14.4375 C 13.117188 -14.320312 13.148438 -14.132812 13.171875 -13.875 C 13.191406 -13.613281 13.207031 -13.234375 13.21875 -12.734375 C 13.226562 -12.242188 13.234375 -11.550781 13.234375 -10.65625 L 13.234375 0 L 8.234375 0 L 8.234375 -10.625 C 8.234375 -11.832031 7.832031 -12.4375 7.03125 -12.4375 C 6.28125 -12.4375 5.90625 -11.8125 5.90625 -10.5625 L 5.90625 0 L 0.90625 0 Z M 0.90625 -20.953125 "/></g></g></g><g fill="#c0c0c0" fill-opacity="1"><g transform="translate(222.077295, 55.245595)"><g/></g></g><g fill="#c0c0c0" fill-opacity="1"><g transform="translate(229.521625, 55.245595)"><g><path d="M 1 -15.640625 C 1 -16.898438 0.972656 -17.929688 0.921875 -18.734375 C 0.867188 -19.546875 0.789062 -20.285156 0.6875 -20.953125 L 7.125 -20.953125 C 6.957031 -20.117188 6.832031 -19.285156 6.75 -18.453125 C 6.664062 -17.628906 6.625 -16.75 6.625 -15.8125 L 6.625 -4.5625 L 10.40625 -4.78125 L 9.390625 0 L 1 0 Z M 1 -15.640625 "/></g></g></g><g fill="#c0c0c0" fill-opacity="1"><g transform="translate(239.730089, 55.245595)"><g><path d="M 1 -15.640625 C 1 -16.898438 0.972656 -17.929688 0.921875 -18.734375 C 0.867188 -19.546875 0.789062 -20.285156 0.6875 -20.953125 L 7.125 -20.953125 C 6.957031 -20.117188 6.832031 -19.285156 6.75 -18.453125 C 6.664062 -17.628906 6.625 -16.75 6.625 -15.8125 L 6.625 -4.5625 L 10.40625 -4.78125 L 9.390625 0 L 1 0 Z M 1 -15.640625 "/></g></g></g><g fill="#c0c0c0" fill-opacity="1"><g transform="translate(249.938553, 55.245595)"><g><path d="M 6.375 0 C 5.707031 0 5.175781 -0.00390625 4.78125 -0.015625 C 4.394531 -0.0234375 4.09375 -0.0390625 3.875 -0.0625 C 3.65625 -0.0820312 3.488281 -0.0976562 3.375 -0.109375 C 3.257812 -0.117188 3.140625 -0.144531 3.015625 -0.1875 C 2.578125 -0.3125 2.21875 -0.515625 1.9375 -0.796875 C 1.65625 -1.078125 1.425781 -1.492188 1.25 -2.046875 C 1.082031 -2.609375 0.96875 -3.328125 0.90625 -4.203125 C 0.84375 -5.085938 0.8125 -6.203125 0.8125 -7.546875 L 0.8125 -14.234375 C 0.8125 -14.523438 0.820312 -14.867188 0.84375 -15.265625 C 0.863281 -15.671875 0.890625 -16.0625 0.921875 -16.4375 C 0.953125 -16.8125 0.984375 -17.164062 1.015625 -17.5 C 1.046875 -17.832031 1.082031 -18.082031 1.125 -18.25 C 1.269531 -18.988281 1.503906 -19.550781 1.828125 -19.9375 C 2.160156 -20.320312 2.617188 -20.597656 3.203125 -20.765625 C 3.328125 -20.785156 3.457031 -20.804688 3.59375 -20.828125 C 3.726562 -20.847656 3.90625 -20.867188 4.125 -20.890625 C 4.351562 -20.910156 4.644531 -20.925781 5 -20.9375 C 5.351562 -20.945312 5.8125 -20.953125 6.375 -20.953125 L 9.953125 -20.953125 L 9.953125 -16.40625 L 8.953125 -16.40625 C 8.578125 -16.40625 8.273438 -16.398438 8.046875 -16.390625 C 7.816406 -16.378906 7.628906 -16.363281 7.484375 -16.34375 C 7.335938 -16.320312 7.210938 -16.28125 7.109375 -16.21875 C 7.015625 -16.15625 6.925781 -16.082031 6.84375 -16 C 6.65625 -15.8125 6.539062 -15.59375 6.5 -15.34375 C 6.457031 -15.101562 6.4375 -14.609375 6.4375 -13.859375 L 6.4375 -7.09375 C 6.4375 -6.34375 6.460938 -5.847656 6.515625 -5.609375 C 6.566406 -5.367188 6.675781 -5.15625 6.84375 -4.96875 C 6.925781 -4.863281 7.015625 -4.785156 7.109375 -4.734375 C 7.210938 -4.679688 7.335938 -4.644531 7.484375 -4.625 C 7.628906 -4.601562 7.816406 -4.585938 8.046875 -4.578125 C 8.273438 -4.566406 8.578125 -4.5625 8.953125 -4.5625 L 10.125 -4.5625 L 10.125 0 Z M 6.375 0 "/></g></g></g><g fill="#101ad4" fill-opacity="1"><g transform="translate(10.14249, 53.856531)"><g><path d="M 1 -20.953125 L 9.578125 -20.953125 C 10.296875 -20.953125 10.863281 -20.945312 11.28125 -20.9375 C 11.695312 -20.925781 12.03125 -20.90625 12.28125 -20.875 C 12.53125 -20.84375 12.726562 -20.796875 12.875 -20.734375 C 13.03125 -20.671875 13.191406 -20.585938 13.359375 -20.484375 C 14.191406 -19.941406 14.609375 -18.75 14.609375 -16.90625 L 14.609375 -15.546875 C 14.609375 -15.023438 14.601562 -14.585938 14.59375 -14.234375 C 14.582031 -13.878906 14.554688 -13.578125 14.515625 -13.328125 C 14.472656 -13.078125 14.414062 -12.851562 14.34375 -12.65625 C 14.269531 -12.46875 14.171875 -12.28125 14.046875 -12.09375 C 13.796875 -11.675781 13.484375 -11.367188 13.109375 -11.171875 C 12.742188 -10.972656 12.21875 -10.832031 11.53125 -10.75 C 12.15625 -10.5625 12.664062 -10.363281 13.0625 -10.15625 C 13.46875 -9.957031 13.785156 -9.707031 14.015625 -9.40625 C 14.242188 -9.101562 14.398438 -8.742188 14.484375 -8.328125 C 14.566406 -7.910156 14.609375 -7.382812 14.609375 -6.75 L 14.609375 -3.515625 C 14.609375 -2.242188 14.753906 -1.070312 15.046875 0 L 9.421875 0 C 9.253906 -0.539062 9.140625 -1.0625 9.078125 -1.5625 C 9.015625 -2.070312 8.984375 -2.722656 8.984375 -3.515625 L 8.984375 -6.3125 C 8.984375 -6.988281 8.859375 -7.472656 8.609375 -7.765625 C 8.359375 -8.054688 7.941406 -8.203125 7.359375 -8.203125 L 6.625 -8.203125 L 6.625 0 L 1 0 Z M 7.421875 -12.75 C 8.066406 -12.75 8.492188 -12.863281 8.703125 -13.09375 C 8.910156 -13.332031 9.015625 -13.816406 9.015625 -14.546875 C 9.015625 -15.234375 8.898438 -15.710938 8.671875 -15.984375 C 8.441406 -16.265625 8.023438 -16.40625 7.421875 -16.40625 L 6.625 -16.40625 L 6.625 -12.75 Z M 7.421875 -12.75 "/></g></g></g><g fill="#101ad4" fill-opacity="1"><g transform="translate(25.753587, 53.856531)"><g><path d="M 5.625 0 C 4.40625 0 3.492188 -0.0625 2.890625 -0.1875 C 2.285156 -0.3125 1.828125 -0.519531 1.515625 -0.8125 C 1.335938 -0.957031 1.207031 -1.101562 1.125 -1.25 C 1.039062 -1.40625 0.972656 -1.601562 0.921875 -1.84375 C 0.867188 -2.082031 0.835938 -2.40625 0.828125 -2.8125 C 0.816406 -3.21875 0.8125 -3.769531 0.8125 -4.46875 L 0.8125 -11.59375 C 0.8125 -12.28125 0.816406 -12.828125 0.828125 -13.234375 C 0.835938 -13.648438 0.867188 -13.984375 0.921875 -14.234375 C 0.972656 -14.484375 1.039062 -14.679688 1.125 -14.828125 C 1.207031 -14.972656 1.335938 -15.117188 1.515625 -15.265625 C 1.828125 -15.566406 2.285156 -15.78125 2.890625 -15.90625 C 3.492188 -16.03125 4.40625 -16.09375 5.625 -16.09375 L 8.390625 -16.09375 C 9.585938 -16.09375 10.488281 -16.03125 11.09375 -15.90625 C 11.695312 -15.78125 12.15625 -15.566406 12.46875 -15.265625 C 12.613281 -15.117188 12.734375 -14.972656 12.828125 -14.828125 C 12.929688 -14.679688 13.007812 -14.484375 13.0625 -14.234375 C 13.113281 -13.984375 13.144531 -13.648438 13.15625 -13.234375 C 13.164062 -12.828125 13.171875 -12.28125 13.171875 -11.59375 L 13.171875 -4.46875 C 13.171875 -3.769531 13.164062 -3.21875 13.15625 -2.8125 C 13.144531 -2.40625 13.113281 -2.082031 13.0625 -1.84375 C 13.007812 -1.601562 12.929688 -1.40625 12.828125 -1.25 C 12.734375 -1.101562 12.613281 -0.957031 12.46875 -0.8125 C 12.15625 -0.519531 11.695312 -0.3125 11.09375 -0.1875 C 10.488281 -0.0625 9.585938 0 8.390625 0 Z M 8.171875 -10.53125 C 8.171875 -11.132812 8.078125 -11.570312 7.890625 -11.84375 C 7.703125 -12.113281 7.382812 -12.25 6.9375 -12.25 C 6.1875 -12.25 5.8125 -11.675781 5.8125 -10.53125 L 5.8125 -5.46875 C 5.8125 -4.863281 5.90625 -4.421875 6.09375 -4.140625 C 6.28125 -3.867188 6.59375 -3.734375 7.03125 -3.734375 C 7.789062 -3.734375 8.171875 -4.3125 8.171875 -5.46875 Z M 8.171875 -10.53125 "/></g></g></g><g fill="#101ad4" fill-opacity="1"><g transform="translate(39.731327, 53.856531)"><g><path d="M 4.34375 0 C 3.414062 0 2.722656 -0.078125 2.265625 -0.234375 C 1.804688 -0.390625 1.445312 -0.675781 1.1875 -1.09375 C 1.101562 -1.238281 1.035156 -1.367188 0.984375 -1.484375 C 0.929688 -1.609375 0.894531 -1.785156 0.875 -2.015625 C 0.851562 -2.242188 0.835938 -2.566406 0.828125 -2.984375 C 0.816406 -3.398438 0.8125 -4 0.8125 -4.78125 L 0.8125 -12.46875 C 0.8125 -12.894531 0.8125 -13.222656 0.8125 -13.453125 C 0.8125 -13.679688 0.816406 -13.863281 0.828125 -14 C 0.835938 -14.132812 0.859375 -14.242188 0.890625 -14.328125 C 0.921875 -14.410156 0.957031 -14.515625 1 -14.640625 C 1.082031 -14.910156 1.203125 -15.140625 1.359375 -15.328125 C 1.523438 -15.515625 1.738281 -15.660156 2 -15.765625 C 2.257812 -15.878906 2.582031 -15.960938 2.96875 -16.015625 C 3.351562 -16.066406 3.820312 -16.09375 4.375 -16.09375 L 8.890625 -16.09375 L 8.890625 -12.28125 L 7.234375 -12.28125 C 6.929688 -12.28125 6.6875 -12.253906 6.5 -12.203125 C 6.3125 -12.148438 6.164062 -12.050781 6.0625 -11.90625 C 5.957031 -11.757812 5.890625 -11.554688 5.859375 -11.296875 C 5.828125 -11.035156 5.8125 -10.6875 5.8125 -10.25 L 5.8125 -5.71875 C 5.8125 -5.300781 5.828125 -4.96875 5.859375 -4.71875 C 5.890625 -4.46875 5.957031 -4.269531 6.0625 -4.125 C 6.164062 -3.988281 6.316406 -3.898438 6.515625 -3.859375 C 6.710938 -3.816406 6.984375 -3.796875 7.328125 -3.796875 L 8.890625 -3.796875 L 8.890625 0 Z M 4.34375 0 "/></g></g></g><g fill="#101ad4" fill-opacity="1"><g transform="translate(48.93465, 53.856531)"><g><path d="M 0.90625 -20.953125 L 5.90625 -20.953125 L 5.90625 -9.921875 L 6.53125 -9.921875 C 6.84375 -9.921875 7.101562 -9.960938 7.3125 -10.046875 C 7.53125 -10.140625 7.695312 -10.285156 7.8125 -10.484375 C 7.925781 -10.679688 8.007812 -10.945312 8.0625 -11.28125 C 8.113281 -11.613281 8.140625 -12.039062 8.140625 -12.5625 L 8.140625 -16.09375 L 13.140625 -16.09375 L 13.140625 -12.78125 C 13.140625 -12.09375 13.082031 -11.507812 12.96875 -11.03125 C 12.863281 -10.550781 12.671875 -10.144531 12.390625 -9.8125 C 12.109375 -9.488281 11.726562 -9.210938 11.25 -8.984375 C 10.769531 -8.753906 10.148438 -8.546875 9.390625 -8.359375 C 10.734375 -8.109375 11.691406 -7.691406 12.265625 -7.109375 C 12.847656 -6.535156 13.140625 -5.707031 13.140625 -4.625 L 13.140625 -3.234375 C 13.140625 -2.734375 13.144531 -2.332031 13.15625 -2.03125 C 13.164062 -1.726562 13.179688 -1.460938 13.203125 -1.234375 C 13.222656 -1.015625 13.257812 -0.816406 13.3125 -0.640625 C 13.363281 -0.460938 13.429688 -0.25 13.515625 0 L 8.484375 0 C 8.359375 -0.476562 8.269531 -0.9375 8.21875 -1.375 C 8.164062 -1.820312 8.140625 -2.390625 8.140625 -3.078125 L 8.140625 -3.859375 C 8.140625 -5.222656 7.644531 -5.90625 6.65625 -5.90625 L 5.90625 -5.90625 L 5.90625 0 L 0.90625 0 Z M 0.90625 -20.953125 "/></g></g></g><g fill="#101ad4" fill-opacity="1"><g transform="translate(62.818168, 53.856531)"><g><path d="M 8.671875 0.0625 C 8.273438 0.0625 7.945312 0.0390625 7.6875 0 C 7.425781 -0.0390625 7.195312 -0.125 7 -0.25 C 6.8125 -0.375 6.632812 -0.554688 6.46875 -0.796875 C 6.300781 -1.035156 6.113281 -1.359375 5.90625 -1.765625 L 5.90625 0 L 0.90625 0 L 0.90625 -20.953125 L 5.90625 -20.953125 L 5.90625 -14.421875 L 6.28125 -14.890625 C 6.488281 -15.160156 6.679688 -15.378906 6.859375 -15.546875 C 7.035156 -15.722656 7.234375 -15.859375 7.453125 -15.953125 C 7.679688 -16.046875 7.9375 -16.109375 8.21875 -16.140625 C 8.5 -16.171875 8.847656 -16.1875 9.265625 -16.1875 L 10.34375 -16.1875 C 11.425781 -16.1875 12.207031 -15.847656 12.6875 -15.171875 C 12.863281 -14.941406 12.984375 -14.640625 13.046875 -14.265625 C 13.109375 -13.890625 13.140625 -13.375 13.140625 -12.71875 L 13.140625 -4.109375 C 13.140625 -3.378906 13.082031 -2.710938 12.96875 -2.109375 C 12.863281 -1.515625 12.71875 -1.070312 12.53125 -0.78125 C 12.300781 -0.445312 11.992188 -0.222656 11.609375 -0.109375 C 11.222656 0.00390625 10.578125 0.0625 9.671875 0.0625 Z M 8.140625 -10.625 C 8.140625 -11.832031 7.757812 -12.4375 7 -12.4375 C 6.269531 -12.4375 5.90625 -11.832031 5.90625 -10.625 L 5.90625 -5.65625 C 5.90625 -4.4375 6.28125 -3.828125 7.03125 -3.828125 C 7.769531 -3.828125 8.140625 -4.4375 8.140625 -5.65625 Z M 8.140625 -10.625 "/></g></g></g><g fill="#101ad4" fill-opacity="1"><g transform="translate(76.764514, 53.856531)"><g><path d="M 6.15625 0 C 5.507812 0 4.960938 -0.015625 4.515625 -0.046875 C 4.078125 -0.078125 3.703125 -0.132812 3.390625 -0.21875 C 3.078125 -0.300781 2.804688 -0.414062 2.578125 -0.5625 C 2.347656 -0.707031 2.128906 -0.894531 1.921875 -1.125 C 1.734375 -1.3125 1.566406 -1.515625 1.421875 -1.734375 C 1.285156 -1.960938 1.179688 -2.21875 1.109375 -2.5 C 1.035156 -2.78125 0.984375 -3.113281 0.953125 -3.5 C 0.921875 -3.882812 0.90625 -4.363281 0.90625 -4.9375 L 0.90625 -16.09375 L 5.90625 -16.09375 L 5.90625 -5.46875 C 5.90625 -4.3125 6.28125 -3.734375 7.03125 -3.734375 C 7.476562 -3.734375 7.796875 -3.867188 7.984375 -4.140625 C 8.171875 -4.421875 8.265625 -4.863281 8.265625 -5.46875 L 8.265625 -16.09375 L 13.265625 -16.09375 L 13.265625 -4.9375 C 13.265625 -4.382812 13.25 -3.910156 13.21875 -3.515625 C 13.1875 -3.117188 13.132812 -2.78125 13.0625 -2.5 C 12.988281 -2.21875 12.878906 -1.960938 12.734375 -1.734375 C 12.597656 -1.515625 12.4375 -1.3125 12.25 -1.125 C 12.019531 -0.894531 11.796875 -0.707031 11.578125 -0.5625 C 11.359375 -0.414062 11.09375 -0.300781 10.78125 -0.21875 C 10.46875 -0.132812 10.085938 -0.078125 9.640625 -0.046875 C 9.203125 -0.015625 8.660156 0 8.015625 0 Z M 6.15625 0 "/></g></g></g><g fill="#101ad4" fill-opacity="1"><g transform="translate(90.930736, 53.856531)"><g><path d="M 0.65625 -3.796875 L 5.59375 -3.796875 L 5.59375 -5.84375 L 3.140625 -5.84375 C 2.535156 -5.84375 2.078125 -5.890625 1.765625 -5.984375 C 1.460938 -6.078125 1.226562 -6.238281 1.0625 -6.46875 C 0.976562 -6.59375 0.910156 -6.707031 0.859375 -6.8125 C 0.804688 -6.914062 0.765625 -7.0625 0.734375 -7.25 C 0.703125 -7.445312 0.679688 -7.707031 0.671875 -8.03125 C 0.660156 -8.351562 0.65625 -8.804688 0.65625 -9.390625 L 0.65625 -13.203125 C 0.65625 -13.929688 0.75 -14.492188 0.9375 -14.890625 C 1.125 -15.285156 1.429688 -15.59375 1.859375 -15.8125 C 2.066406 -15.914062 2.335938 -15.988281 2.671875 -16.03125 C 3.003906 -16.070312 3.453125 -16.09375 4.015625 -16.09375 L 10.1875 -16.09375 L 10.1875 -12.28125 L 5.65625 -12.28125 L 5.65625 -10.40625 L 7.421875 -10.40625 C 8.210938 -10.40625 8.832031 -10.328125 9.28125 -10.171875 C 9.726562 -10.023438 10.070312 -9.773438 10.3125 -9.421875 C 10.394531 -9.273438 10.46875 -9.125 10.53125 -8.96875 C 10.59375 -8.8125 10.640625 -8.613281 10.671875 -8.375 C 10.703125 -8.132812 10.722656 -7.816406 10.734375 -7.421875 C 10.742188 -7.035156 10.75 -6.539062 10.75 -5.9375 L 10.75 -3.734375 C 10.75 -3.503906 10.722656 -3.179688 10.671875 -2.765625 C 10.617188 -2.347656 10.570312 -2.035156 10.53125 -1.828125 C 10.425781 -1.398438 10.195312 -1.019531 9.84375 -0.6875 C 9.5 -0.351562 9.117188 -0.15625 8.703125 -0.09375 C 8.578125 -0.0703125 8.410156 -0.0546875 8.203125 -0.046875 C 7.992188 -0.0351562 7.570312 -0.0195312 6.9375 0 L 0.65625 0 Z M 0.65625 -3.796875 "/></g></g></g><g fill="#101ad4" fill-opacity="1"><g transform="translate(102.332804, 53.856531)"><g><path d="M 4.625 0 C 3.96875 0 3.421875 -0.0625 2.984375 -0.1875 C 2.546875 -0.3125 2.195312 -0.519531 1.9375 -0.8125 C 1.675781 -1.101562 1.484375 -1.488281 1.359375 -1.96875 C 1.242188 -2.457031 1.1875 -3.066406 1.1875 -3.796875 L 1.1875 -11.6875 L -0.15625 -11.6875 L -0.15625 -15.484375 L 1.1875 -15.484375 L 1.1875 -19.296875 L 6.1875 -19.296875 L 6.1875 -15.484375 L 8.578125 -15.484375 L 8.578125 -11.6875 L 6.1875 -11.6875 L 6.1875 -4.9375 C 6.1875 -4.519531 6.265625 -4.222656 6.421875 -4.046875 C 6.578125 -3.878906 6.859375 -3.796875 7.265625 -3.796875 L 8.578125 -3.796875 L 8.578125 0 Z M 4.625 0 "/></g></g></g><g fill="#101ad4" fill-opacity="1"><g transform="translate(111.190615, 53.856531)"><g><path d="M 4.65625 0 C 3.707031 0 3.007812 -0.046875 2.5625 -0.140625 C 2.113281 -0.234375 1.753906 -0.414062 1.484375 -0.6875 C 1.328125 -0.832031 1.207031 -0.984375 1.125 -1.140625 C 1.039062 -1.296875 0.972656 -1.5 0.921875 -1.75 C 0.867188 -2.007812 0.835938 -2.34375 0.828125 -2.75 C 0.816406 -3.15625 0.8125 -3.6875 0.8125 -4.34375 L 0.8125 -12.84375 C 0.8125 -14.019531 1.066406 -14.859375 1.578125 -15.359375 C 1.828125 -15.617188 2.210938 -15.804688 2.734375 -15.921875 C 3.253906 -16.035156 3.988281 -16.09375 4.9375 -16.09375 L 8.859375 -16.09375 C 10.535156 -16.09375 11.675781 -15.847656 12.28125 -15.359375 C 12.445312 -15.234375 12.578125 -15.109375 12.671875 -14.984375 C 12.765625 -14.859375 12.835938 -14.695312 12.890625 -14.5 C 12.953125 -14.300781 12.992188 -14.054688 13.015625 -13.765625 C 13.035156 -13.472656 13.046875 -13.09375 13.046875 -12.625 L 13.046875 -6.03125 L 5.8125 -6.03125 L 5.8125 -5.1875 C 5.8125 -4.644531 5.929688 -4.273438 6.171875 -4.078125 C 6.410156 -3.890625 6.878906 -3.796875 7.578125 -3.796875 L 13.046875 -3.796875 L 13.046875 0 Z M 8.046875 -9.078125 L 8.046875 -10.53125 C 8.046875 -11.070312 7.945312 -11.5 7.75 -11.8125 C 7.550781 -12.125 7.269531 -12.28125 6.90625 -12.28125 C 6.550781 -12.28125 6.28125 -12.125 6.09375 -11.8125 C 5.90625 -11.5 5.8125 -11.070312 5.8125 -10.53125 L 5.8125 -9.078125 Z M 8.046875 -9.078125 "/></g></g></g><g fill="#101ad4" fill-opacity="1"><g transform="translate(124.948498, 53.856531)"><g><path d="M 0.90625 -16.09375 L 5.90625 -16.09375 L 5.90625 -14.015625 C 6.382812 -14.804688 6.859375 -15.363281 7.328125 -15.6875 C 7.804688 -16.019531 8.410156 -16.1875 9.140625 -16.1875 C 9.304688 -16.1875 9.445312 -16.175781 9.5625 -16.15625 C 9.675781 -16.132812 9.832031 -16.082031 10.03125 -16 L 9.640625 -10.5625 C 9.265625 -10.75 8.9375 -10.90625 8.65625 -11.03125 C 8.375 -11.15625 8.097656 -11.269531 7.828125 -11.375 C 7.554688 -11.476562 7.265625 -11.582031 6.953125 -11.6875 C 6.648438 -11.789062 6.300781 -11.90625 5.90625 -12.03125 L 5.90625 0 L 0.90625 0 Z M 0.90625 -16.09375 "/></g></g></g><g fill="#101ad4" fill-opacity="1"><g transform="translate(134.905672, 53.856531)"><g/></g></g><g fill="#101ad4" fill-opacity="1"><g transform="translate(142.350002, 53.856531)"><g><path d="M 0.53125 -4.5625 L 5.78125 -4.5625 L 5.78125 -8.203125 L 4.90625 -8.203125 C 3.8125 -8.203125 2.992188 -8.296875 2.453125 -8.484375 C 1.910156 -8.671875 1.488281 -9.015625 1.1875 -9.515625 C 1.039062 -9.742188 0.921875 -9.984375 0.828125 -10.234375 C 0.734375 -10.492188 0.65625 -10.789062 0.59375 -11.125 C 0.53125 -11.457031 0.488281 -11.851562 0.46875 -12.3125 C 0.445312 -12.78125 0.4375 -13.328125 0.4375 -13.953125 L 0.4375 -15.234375 C 0.4375 -17.835938 0.867188 -19.503906 1.734375 -20.234375 C 1.921875 -20.378906 2.113281 -20.503906 2.3125 -20.609375 C 2.507812 -20.710938 2.765625 -20.785156 3.078125 -20.828125 C 3.390625 -20.867188 3.789062 -20.898438 4.28125 -20.921875 C 4.78125 -20.941406 5.40625 -20.953125 6.15625 -20.953125 L 11 -20.953125 L 11 -16.40625 L 6.0625 -16.40625 L 6.0625 -12.75 L 7.0625 -12.75 C 7.96875 -12.75 8.710938 -12.671875 9.296875 -12.515625 C 9.890625 -12.359375 10.351562 -12.070312 10.6875 -11.65625 C 11.019531 -11.238281 11.25 -10.664062 11.375 -9.9375 C 11.5 -9.21875 11.5625 -8.304688 11.5625 -7.203125 L 11.5625 -5.90625 C 11.5625 -4.644531 11.488281 -3.628906 11.34375 -2.859375 C 11.195312 -2.085938 10.96875 -1.5 10.65625 -1.09375 C 10.363281 -0.738281 10.03125 -0.476562 9.65625 -0.3125 C 9.289062 -0.144531 8.796875 -0.0390625 8.171875 0 L 0.53125 0 Z M 0.53125 -4.5625 "/></g></g></g><g fill="#101ad4" fill-opacity="1"><g transform="translate(154.317458, 53.856531)"><g><path d="M 4.625 0 C 3.96875 0 3.421875 -0.0625 2.984375 -0.1875 C 2.546875 -0.3125 2.195312 -0.519531 1.9375 -0.8125 C 1.675781 -1.101562 1.484375 -1.488281 1.359375 -1.96875 C 1.242188 -2.457031 1.1875 -3.066406 1.1875 -3.796875 L 1.1875 -11.6875 L -0.15625 -11.6875 L -0.15625 -15.484375 L 1.1875 -15.484375 L 1.1875 -19.296875 L 6.1875 -19.296875 L 6.1875 -15.484375 L 8.578125 -15.484375 L 8.578125 -11.6875 L 6.1875 -11.6875 L 6.1875 -4.9375 C 6.1875 -4.519531 6.265625 -4.222656 6.421875 -4.046875 C 6.578125 -3.878906 6.859375 -3.796875 7.265625 -3.796875 L 8.578125 -3.796875 L 8.578125 0 Z M 4.625 0 "/></g></g></g><g fill="#101ad4" fill-opacity="1"><g transform="translate(163.175269, 53.856531)"><g><path d="M 4.65625 0 C 3.707031 0 3.007812 -0.046875 2.5625 -0.140625 C 2.113281 -0.234375 1.753906 -0.414062 1.484375 -0.6875 C 1.328125 -0.832031 1.207031 -0.984375 1.125 -1.140625 C 1.039062 -1.296875 0.972656 -1.5 0.921875 -1.75 C 0.867188 -2.007812 0.835938 -2.34375 0.828125 -2.75 C 0.816406 -3.15625 0.8125 -3.6875 0.8125 -4.34375 L 0.8125 -12.84375 C 0.8125 -14.019531 1.066406 -14.859375 1.578125 -15.359375 C 1.828125 -15.617188 2.210938 -15.804688 2.734375 -15.921875 C 3.253906 -16.035156 3.988281 -16.09375 4.9375 -16.09375 L 8.859375 -16.09375 C 10.535156 -16.09375 11.675781 -15.847656 12.28125 -15.359375 C 12.445312 -15.234375 12.578125 -15.109375 12.671875 -14.984375 C 12.765625 -14.859375 12.835938 -14.695312 12.890625 -14.5 C 12.953125 -14.300781 12.992188 -14.054688 13.015625 -13.765625 C 13.035156 -13.472656 13.046875 -13.09375 13.046875 -12.625 L 13.046875 -6.03125 L 5.8125 -6.03125 L 5.8125 -5.1875 C 5.8125 -4.644531 5.929688 -4.273438 6.171875 -4.078125 C 6.410156 -3.890625 6.878906 -3.796875 7.578125 -3.796875 L 13.046875 -3.796875 L 13.046875 0 Z M 8.046875 -9.078125 L 8.046875 -10.53125 C 8.046875 -11.070312 7.945312 -11.5 7.75 -11.8125 C 7.550781 -12.125 7.269531 -12.28125 6.90625 -12.28125 C 6.550781 -12.28125 6.28125 -12.125 6.09375 -11.8125 C 5.90625 -11.5 5.8125 -11.070312 5.8125 -10.53125 L 5.8125 -9.078125 Z M 8.046875 -9.078125 "/></g></g></g><g fill="#101ad4" fill-opacity="1"><g transform="translate(176.933152, 53.856531)"><g><path d="M 4.265625 0.0625 C 3.367188 0.0625 2.726562 0.00390625 2.34375 -0.109375 C 1.957031 -0.222656 1.644531 -0.445312 1.40625 -0.78125 C 1.21875 -1.070312 1.070312 -1.507812 0.96875 -2.09375 C 0.863281 -2.6875 0.8125 -3.359375 0.8125 -4.109375 L 0.8125 -12.6875 C 0.8125 -13.46875 0.859375 -14.054688 0.953125 -14.453125 C 1.046875 -14.847656 1.222656 -15.171875 1.484375 -15.421875 C 1.984375 -15.929688 2.691406 -16.1875 3.609375 -16.1875 L 4.6875 -16.1875 C 5.082031 -16.1875 5.421875 -16.164062 5.703125 -16.125 C 5.984375 -16.082031 6.234375 -16.015625 6.453125 -15.921875 C 6.671875 -15.828125 6.875 -15.691406 7.0625 -15.515625 C 7.257812 -15.347656 7.460938 -15.128906 7.671875 -14.859375 L 8.046875 -14.390625 L 8.046875 -16.09375 L 13.046875 -16.09375 L 13.046875 0 L 8.046875 0 L 8.046875 -1.765625 C 7.835938 -1.359375 7.648438 -1.035156 7.484375 -0.796875 C 7.316406 -0.554688 7.128906 -0.375 6.921875 -0.25 C 6.722656 -0.125 6.5 -0.0390625 6.25 0 C 6 0.0390625 5.675781 0.0625 5.28125 0.0625 Z M 8.046875 -10.625 C 8.046875 -11.832031 7.664062 -12.4375 6.90625 -12.4375 C 6.175781 -12.4375 5.8125 -11.832031 5.8125 -10.625 L 5.8125 -5.65625 C 5.8125 -4.4375 6.1875 -3.828125 6.9375 -3.828125 C 7.675781 -3.828125 8.046875 -4.4375 8.046875 -5.65625 Z M 8.046875 -10.625 "/></g></g></g><g fill="#101ad4" fill-opacity="1"><g transform="translate(190.879498, 53.856531)"><g><path d="M 0.90625 -20.953125 L 5.90625 -20.953125 L 5.90625 0 L 0.90625 0 Z M 0.90625 -20.953125 "/></g></g></g><g fill="#101ad4" fill-opacity="1"><g transform="translate(197.695612, 53.856531)"><g><path d="M 4.625 0 C 3.96875 0 3.421875 -0.0625 2.984375 -0.1875 C 2.546875 -0.3125 2.195312 -0.519531 1.9375 -0.8125 C 1.675781 -1.101562 1.484375 -1.488281 1.359375 -1.96875 C 1.242188 -2.457031 1.1875 -3.066406 1.1875 -3.796875 L 1.1875 -11.6875 L -0.15625 -11.6875 L -0.15625 -15.484375 L 1.1875 -15.484375 L 1.1875 -19.296875 L 6.1875 -19.296875 L 6.1875 -15.484375 L 8.578125 -15.484375 L 8.578125 -11.6875 L 6.1875 -11.6875 L 6.1875 -4.9375 C 6.1875 -4.519531 6.265625 -4.222656 6.421875 -4.046875 C 6.578125 -3.878906 6.859375 -3.796875 7.265625 -3.796875 L 8.578125 -3.796875 L 8.578125 0 Z M 4.625 0 "/></g></g></g><g fill="#101ad4" fill-opacity="1"><g transform="translate(206.553423, 53.856531)"><g><path d="M 0.90625 -20.953125 L 5.90625 -20.953125 L 5.90625 -14.359375 C 6.113281 -14.691406 6.328125 -14.972656 6.546875 -15.203125 C 6.765625 -15.429688 7.007812 -15.617188 7.28125 -15.765625 C 7.5625 -15.921875 7.878906 -16.023438 8.234375 -16.078125 C 8.585938 -16.128906 9.003906 -16.15625 9.484375 -16.15625 C 10.492188 -16.15625 11.257812 -16.050781 11.78125 -15.84375 C 12.300781 -15.644531 12.679688 -15.304688 12.921875 -14.828125 C 12.984375 -14.679688 13.035156 -14.550781 13.078125 -14.4375 C 13.117188 -14.320312 13.148438 -14.132812 13.171875 -13.875 C 13.191406 -13.613281 13.207031 -13.234375 13.21875 -12.734375 C 13.226562 -12.242188 13.234375 -11.550781 13.234375 -10.65625 L 13.234375 0 L 8.234375 0 L 8.234375 -10.625 C 8.234375 -11.832031 7.832031 -12.4375 7.03125 -12.4375 C 6.28125 -12.4375 5.90625 -11.8125 5.90625 -10.5625 L 5.90625 0 L 0.90625 0 Z M 0.90625 -20.953125 "/></g></g></g><g fill="#101ad4" fill-opacity="1"><g transform="translate(220.688231, 53.856531)"><g/></g></g><g fill="#101ad4" fill-opacity="1"><g transform="translate(228.132561, 53.856531)"><g><path d="M 1 -15.640625 C 1 -16.898438 0.972656 -17.929688 0.921875 -18.734375 C 0.867188 -19.546875 0.789062 -20.285156 0.6875 -20.953125 L 7.125 -20.953125 C 6.957031 -20.117188 6.832031 -19.285156 6.75 -18.453125 C 6.664062 -17.628906 6.625 -16.75 6.625 -15.8125 L 6.625 -4.5625 L 10.40625 -4.78125 L 9.390625 0 L 1 0 Z M 1 -15.640625 "/></g></g></g><g fill="#101ad4" fill-opacity="1"><g transform="translate(238.341025, 53.856531)"><g><path d="M 1 -15.640625 C 1 -16.898438 0.972656 -17.929688 0.921875 -18.734375 C 0.867188 -19.546875 0.789062 -20.285156 0.6875 -20.953125 L 7.125 -20.953125 C 6.957031 -20.117188 6.832031 -19.285156 6.75 -18.453125 C 6.664062 -17.628906 6.625 -16.75 6.625 -15.8125 L 6.625 -4.5625 L 10.40625 -4.78125 L 9.390625 0 L 1 0 Z M 1 -15.640625 "/></g></g></g><g fill="#101ad4" fill-opacity="1"><g transform="translate(248.549489, 53.856531)"><g><path d="M 6.375 0 C 5.707031 0 5.175781 -0.00390625 4.78125 -0.015625 C 4.394531 -0.0234375 4.09375 -0.0390625 3.875 -0.0625 C 3.65625 -0.0820312 3.488281 -0.0976562 3.375 -0.109375 C 3.257812 -0.117188 3.140625 -0.144531 3.015625 -0.1875 C 2.578125 -0.3125 2.21875 -0.515625 1.9375 -0.796875 C 1.65625 -1.078125 1.425781 -1.492188 1.25 -2.046875 C 1.082031 -2.609375 0.96875 -3.328125 0.90625 -4.203125 C 0.84375 -5.085938 0.8125 -6.203125 0.8125 -7.546875 L 0.8125 -14.234375 C 0.8125 -14.523438 0.820312 -14.867188 0.84375 -15.265625 C 0.863281 -15.671875 0.890625 -16.0625 0.921875 -16.4375 C 0.953125 -16.8125 0.984375 -17.164062 1.015625 -17.5 C 1.046875 -17.832031 1.082031 -18.082031 1.125 -18.25 C 1.269531 -18.988281 1.503906 -19.550781 1.828125 -19.9375 C 2.160156 -20.320312 2.617188 -20.597656 3.203125 -20.765625 C 3.328125 -20.785156 3.457031 -20.804688 3.59375 -20.828125 C 3.726562 -20.847656 3.90625 -20.867188 4.125 -20.890625 C 4.351562 -20.910156 4.644531 -20.925781 5 -20.9375 C 5.351562 -20.945312 5.8125 -20.953125 6.375 -20.953125 L 9.953125 -20.953125 L 9.953125 -16.40625 L 8.953125 -16.40625 C 8.578125 -16.40625 8.273438 -16.398438 8.046875 -16.390625 C 7.816406 -16.378906 7.628906 -16.363281 7.484375 -16.34375 C 7.335938 -16.320312 7.210938 -16.28125 7.109375 -16.21875 C 7.015625 -16.15625 6.925781 -16.082031 6.84375 -16 C 6.65625 -15.8125 6.539062 -15.59375 6.5 -15.34375 C 6.457031 -15.101562 6.4375 -14.609375 6.4375 -13.859375 L 6.4375 -7.09375 C 6.4375 -6.34375 6.460938 -5.847656 6.515625 -5.609375 C 6.566406 -5.367188 6.675781 -5.15625 6.84375 -4.96875 C 6.925781 -4.863281 7.015625 -4.785156 7.109375 -4.734375 C 7.210938 -4.679688 7.335938 -4.644531 7.484375 -4.625 C 7.628906 -4.601562 7.816406 -4.585938 8.046875 -4.578125 C 8.273438 -4.566406 8.578125 -4.5625 8.953125 -4.5625 L 10.125 -4.5625 L 10.125 0 Z M 6.375 0 "/></g></g></g></svg>